<svg
    id="svg"
    version="1.1"
    xmlns="http://www.w3.org/2000/svg"
    xmlns:xlink="http://www.w3.org/1999/xlink"
    width="80" height="97.30" viewBox="0, 0, 400,486.5168539325843">
    <g id="svgg">
        <path id="path0" d="M167.416 2.878 C 99.584 17.517,41.180 70.167,26.956 129.499 C 21.650 151.632,18.411 205.290,21.666 217.135 C 22.411 219.847,22.203 220.225,19.965 220.229 C 7.507 220.249,1.821 236.132,0.457 274.719 C -0.453 300.458,0.349 304.567,9.854 322.867 C 22.207 346.649,37.277 356.951,49.979 350.297 L 53.293 348.560 56.957 364.448 C 72.124 430.230,94.733 457.358,149.698 475.722 C 254.811 510.839,339.601 458.445,354.119 349.405 C 355.256 340.866,355.752 339.373,357.230 340.046 C 372.386 346.955,387.514 332.915,396.809 303.315 C 401.463 288.497,399.508 260.376,391.504 226.984 C 387.678 211.019,380.521 204.304,370.906 207.655 L 367.870 208.713 366.498 177.110 C 364.331 127.187,360.341 114.946,335.597 82.301 C 300.568 36.085,263.322 9.866,222.616 2.768 C 210.380 0.634,177.511 0.700,167.416 2.878 M210.734 75.207 C 220.739 76.274,233.935 80.885,273.034 96.976 C 302.135 108.952,304.413 110.062,306.904 113.483 C 308.029 115.028,317.508 140.131,327.969 169.267 C 338.430 198.403,347.884 223.609,348.979 225.280 C 351.510 229.142,352.675 297.293,350.638 322.303 C 341.131 439.041,274.019 497.765,175.335 475.697 C 124.506 464.330,94.669 443.799,78.149 408.822 C 60.002 370.401,44.121 273.207,52.102 249.407 C 53.650 244.789,55.230 236.966,55.613 232.022 C 57.074 213.139,58.407 207.708,65.941 189.946 L 73.303 172.588 72.462 164.103 C 71.376 153.159,71.586 149.952,73.652 145.958 C 78.385 136.806,128.765 89.639,135.955 87.629 C 138.118 87.024,141.944 86.527,144.457 86.523 C 151.484 86.513,160.873 84.489,168.722 81.291 C 178.731 77.212,195.536 72.957,198.876 73.655 C 200.421 73.978,205.757 74.676,210.734 75.207 M253.371 179.373 C 227.220 184.899,217.489 196.660,217.711 222.472 C 217.888 242.871,220.596 251.731,225.657 248.469 C 226.899 247.669,226.826 245.521,225.232 235.986 C 219.147 199.600,234.167 184.176,275.843 184.012 C 296.320 183.931,308.906 188.496,319.170 199.728 C 323.953 204.961,324.948 205.574,326.935 204.511 C 334.794 200.305,314.511 183.499,296.433 179.237 C 287.282 177.080,263.875 177.154,253.371 179.373 M102.809 187.665 C 90.355 190.165,75.356 198.907,68.889 207.436 L 66.233 210.939 69.029 212.771 C 71.775 214.570,71.914 214.507,76.938 209.135 C 92.314 192.697,130.718 187.532,153.985 198.774 C 158.911 201.153,161.643 200.153,161.762 195.925 C 161.935 189.801,120.846 184.045,102.809 187.665 M378.071 215.088 C 382.587 216.975,383.605 219.851,388.159 243.577 C 394.677 277.542,394.602 290.890,387.794 308.427 C 380.559 327.064,370.352 337.909,362.937 334.838 C 356.831 332.309,356.441 331.045,357.552 317.416 C 358.106 310.618,358.263 289.382,357.901 270.225 C 357.081 226.916,358.281 221.971,371.348 214.787 C 374.170 213.235,373.573 213.209,378.071 215.088 M116.972 221.429 C 105.794 223.651,99.087 227.460,100.387 230.849 C 100.913 232.219,102.372 231.878,108.659 228.916 C 120.193 223.482,128.774 223.897,139.017 230.383 C 142.234 232.421,145.050 230.364,142.783 227.632 C 138.733 222.752,125.867 219.660,116.972 221.429 M262.360 224.565 C 254.890 228.148,253.208 229.795,254.915 231.852 C 256.224 233.429,256.800 233.331,260.491 230.906 C 268.927 225.361,278.584 225.322,290.517 230.785 C 294.797 232.745,296.744 233.144,297.641 232.246 C 303.650 226.237,272.850 219.531,262.360 224.565 M27.928 229.491 C 37.964 234.251,42.440 248.096,43.823 278.652 C 44.789 300.006,46.523 314.931,49.892 330.908 C 51.781 339.868,50.763 342.945,45.210 345.056 C 30.143 350.785,6.764 314.816,6.793 285.955 C 6.843 237.648,12.615 222.227,27.928 229.491 M225.067 303.894 C 223.095 304.752,218.073 308.066,213.906 311.260 C 201.393 320.850,200.106 320.905,190.235 312.268 C 182.394 305.406,177.446 303.886,168.801 305.680 C 157.867 307.950,156.154 309.236,158.422 313.474 C 159.511 315.508,159.705 315.506,165.697 313.400 C 175.689 309.888,177.129 310.264,187.845 319.182 C 198.291 327.875,203.538 327.631,216.458 317.852 C 228.816 308.498,231.049 307.757,237.548 310.857 C 240.767 312.391,241.775 312.467,243.204 311.281 C 249.419 306.123,234.197 299.924,225.067 303.894 M275.790 318.271 C 275.491 319.050,279.202 323.727,284.036 328.664 C 294.314 339.160,298.087 346.102,298.351 354.995 C 298.565 362.209,301.419 364.536,302.629 358.483 C 304.584 348.710,298.468 335.788,286.345 324.076 C 278.805 316.791,276.784 315.680,275.790 318.271 M110.822 340.242 C 107.220 353.082,111.942 369.663,119.201 369.663 C 121.812 369.663,121.067 365.547,117.856 362.234 C 113.304 357.537,112.307 349.997,115.106 341.438 C 116.660 336.687,116.737 335.449,115.527 334.682 C 113.039 333.104,112.719 333.483,110.822 340.242 M275.708 337.587 C 274.850 339.821,276.121 341.573,278.598 341.573 C 280.807 341.573,281.998 339.644,281.202 337.360 C 280.526 335.422,276.474 335.589,275.708 337.587 M158.010 352.275 C 156.144 357.138,158.897 358.661,176.404 362.450 C 199.342 367.415,247.233 364.086,247.174 357.531 C 247.135 353.176,245.805 352.905,236.506 355.352 C 217.367 360.389,178.110 358.225,160.538 351.164 C 159.392 350.704,158.455 351.115,158.010 352.275 " stroke="none" fill="#000000" fill-rule="evenodd">
        </path>
    </g>
</svg>